<svg width="17" height="17" viewBox="0 0 17 17" fill="none" xmlns="http://www.w3.org/2000/svg">
<g clip-path="url(#clip0_41_770)">
<path d="M4.18359 7.63672C3.81684 7.63672 3.51953 7.33941 3.51953 6.97266C3.51953 6.6059 3.81684 6.30859 4.18359 6.30859C4.55035 6.30859 4.84766 6.6059 4.84766 6.97266C4.84766 7.33941 4.55035 7.63672 4.18359 7.63672Z" fill="#333333"/>
<path d="M2.65625 1.32812H3.51953V0.664062C3.51953 0.297301 3.81683 0 4.18359 0C4.55036 0 4.84766 0.297301 4.84766 0.664062V1.32812H7.86914V0.664062C7.86914 0.297301 8.16644 0 8.5332 0C8.89997 0 9.19727 0.297301 9.19727 0.664062V1.32812H12.1855V0.664062C12.1855 0.297301 12.4828 0 12.8496 0C13.2164 0 13.5137 0.297301 13.5137 0.664062V1.32812H14.3438C15.8084 1.32812 17 2.51972 17 3.98438V14.3438C17 15.8084 15.8084 17 14.3438 17H9.26367C8.89691 17 8.59961 16.7027 8.59961 16.3359C8.59961 15.9692 8.89691 15.6719 9.26367 15.6719H14.3438C15.0761 15.6719 15.6719 15.0761 15.6719 14.3438V3.98438C15.6719 3.25205 15.0761 2.65625 14.3438 2.65625H13.5137V3.32031C13.5137 3.68707 13.2164 3.98438 12.8496 3.98438C12.4828 3.98438 12.1855 3.68707 12.1855 3.32031V2.65625H9.19727V3.32031C9.19727 3.68707 8.89997 3.98438 8.5332 3.98438C8.16644 3.98438 7.86914 3.68707 7.86914 3.32031V2.65625H4.84766V3.32031C4.84766 3.68707 4.55036 3.98438 4.18359 3.98438C3.81683 3.98438 3.51953 3.68707 3.51953 3.32031V2.65625H2.65625C1.92392 2.65625 1.32812 3.25205 1.32812 3.98438V7.76953C1.32812 8.13629 1.03082 8.43359 0.664062 8.43359C0.2973 8.43359 0 8.13629 0 7.76953V3.98438C0 2.51972 1.19159 1.32812 2.65625 1.32812Z" fill="#333333"/>
<path d="M4.01758 8.96484C6.23289 8.96484 8.03516 10.7671 8.03516 12.9824C8.03516 15.1977 6.23289 17 4.01758 17C1.80227 17 0 15.1977 0 12.9824C0 10.7671 1.80227 8.96484 4.01758 8.96484ZM4.01758 15.6719C5.50053 15.6719 6.70703 14.4654 6.70703 12.9824C6.70703 11.4994 5.50053 10.293 4.01758 10.293C2.53463 10.293 1.32812 11.4994 1.32812 12.9824C1.32812 14.4654 2.53463 15.6719 4.01758 15.6719Z" fill="#333333"/>
<path d="M3.05469 12.3184H3.35352V11.6211C3.35352 11.2543 3.65082 10.957 4.01758 10.957C4.38434 10.957 4.68164 11.2543 4.68164 11.6211V12.9824C4.68164 13.3492 4.38434 13.6465 4.01758 13.6465H3.05469C2.68793 13.6465 2.39062 13.3492 2.39062 12.9824C2.39062 12.6157 2.68793 12.3184 3.05469 12.3184Z" fill="#333333"/>
<path d="M7.07227 7.63672C6.70551 7.63672 6.4082 7.33941 6.4082 6.97266C6.4082 6.6059 6.70551 6.30859 7.07227 6.30859C7.43902 6.30859 7.73633 6.6059 7.73633 6.97266C7.73633 7.33941 7.43902 7.63672 7.07227 7.63672Z" fill="#333333"/>
<path d="M9.96094 10.5254C9.59419 10.5254 9.29688 10.2281 9.29688 9.86133C9.29688 9.49458 9.59419 9.19727 9.96094 9.19727C10.3277 9.19727 10.625 9.49458 10.625 9.86133C10.625 10.2281 10.3277 10.5254 9.96094 10.5254Z" fill="#333333"/>
<path d="M12.8496 7.63672C12.4829 7.63672 12.1855 7.33941 12.1855 6.97266C12.1855 6.6059 12.4829 6.30859 12.8496 6.30859C13.2164 6.30859 13.5137 6.6059 13.5137 6.97266C13.5137 7.33941 13.2164 7.63672 12.8496 7.63672Z" fill="#333333"/>
<path d="M12.8496 10.5254C12.4829 10.5254 12.1855 10.2281 12.1855 9.86133C12.1855 9.49458 12.4829 9.19727 12.8496 9.19727C13.2164 9.19727 13.5137 9.49458 13.5137 9.86133C13.5137 10.2281 13.2164 10.5254 12.8496 10.5254Z" fill="#333333"/>
<path d="M12.8496 13.4141C12.4829 13.4141 12.1855 13.1168 12.1855 12.75C12.1855 12.3832 12.4829 12.0859 12.8496 12.0859C13.2164 12.0859 13.5137 12.3832 13.5137 12.75C13.5137 13.1168 13.2164 13.4141 12.8496 13.4141Z" fill="#333333"/>
<path d="M9.96094 13.4141C9.59419 13.4141 9.29688 13.1168 9.29688 12.75C9.29688 12.3832 9.59419 12.0859 9.96094 12.0859C10.3277 12.0859 10.625 12.3832 10.625 12.75C10.625 13.1168 10.3277 13.4141 9.96094 13.4141Z" fill="#333333"/>
<path d="M9.96094 7.63672C9.59419 7.63672 9.29688 7.33941 9.29688 6.97266C9.29688 6.6059 9.59419 6.30859 9.96094 6.30859C10.3277 6.30859 10.625 6.6059 10.625 6.97266C10.625 7.33941 10.3277 7.63672 9.96094 7.63672Z" fill="#333333"/>
</g>
<defs>
<clipPath id="clip0_41_770">
<rect width="17" height="17" fill="white" transform="matrix(-1 0 0 1 17 0)"/>
</clipPath>
</defs>
</svg>
