<svg width="60" height="78" viewBox="0 0 60 78" fill="none" xmlns="http://www.w3.org/2000/svg">
<path d="M49.0026 75.6007L47.8716 66.1552C47.8464 65.9453 47.7595 65.7474 47.622 65.5865C47.4844 65.4255 47.3023 65.3088 47.0987 65.251C46.8951 65.1932 46.6792 65.197 46.4781 65.2618C46.2771 65.3267 46.1 65.4497 45.9693 65.6154L43.7929 68.374L40.6766 65.9154C40.0077 65.3877 39.5751 64.6169 39.474 63.7724C39.3729 62.928 39.6115 62.0791 40.1374 61.4126L56.33 40.8881C57.9437 38.8466 58.8942 36.3599 59.0548 33.7598C59.2154 31.1596 58.5785 28.5697 57.229 26.3355C55.8795 24.1013 53.8816 22.3292 51.5019 21.2555C49.1222 20.1818 46.4739 19.8577 43.9102 20.3263C43.8134 18.5076 43.329 16.7292 42.4893 15.1102C41.6496 13.4912 40.4741 12.069 39.0414 10.9387C37.6088 9.80839 35.952 8.99613 34.182 8.55628C32.4121 8.11643 30.5698 8.05914 28.7785 8.38825C28.652 6.08138 27.9056 3.84915 26.6178 1.92649C26.3499 1.53364 25.9933 1.20906 25.577 0.979063C25.1606 0.749067 24.6963 0.620121 24.2215 0.602675C23.7467 0.585229 23.2749 0.679773 22.8442 0.878646C22.4136 1.07752 22.0362 1.37513 21.7427 1.74735C21.2947 2.29056 21.0241 2.9582 20.9671 3.66074C20.9102 4.36329 21.0696 5.06718 21.424 5.67804C22.1221 6.79897 22.4582 8.10653 22.3863 9.42258C22.3145 10.7386 21.8384 11.9992 21.0227 13.0326L0.864496 38.5835C0.338632 39.25 0.100012 40.0989 0.201128 40.9433C0.302244 41.7878 0.734812 42.5586 1.40368 43.0863C2.07254 43.614 2.92291 43.8553 3.76771 43.7572C4.61251 43.659 5.38254 43.2294 5.9084 42.5628L26.0666 17.0119C27.1183 15.6789 28.6584 14.8196 30.348 14.6233C32.0376 14.4269 33.7383 14.9095 35.076 15.9649C36.4138 17.0203 37.2789 18.562 37.4811 20.2509C37.6834 21.9398 37.2061 23.6376 36.1544 24.9707L15.9962 50.5215C15.4704 51.1881 15.2317 52.0369 15.3328 52.8814C15.434 53.7258 15.8665 54.4967 16.5354 55.0244C17.2043 55.5521 18.0546 55.7934 18.8994 55.6952C19.7442 55.597 20.5143 55.1674 21.0401 54.5009L41.1983 28.95C42.25 27.6169 43.7901 26.7577 45.4797 26.5613C47.1693 26.365 48.87 26.8476 50.2078 27.903C51.5455 28.9584 52.4106 30.5001 52.6129 32.189C52.8151 33.8779 52.3379 35.5756 51.2861 36.9087L35.0935 57.4332C33.5159 59.4328 32.8 61.9794 33.1034 64.5128C33.4067 67.0462 34.7044 69.3587 36.711 70.9418L39.8273 73.4004L37.6509 76.1591C37.5202 76.3248 37.4418 76.5256 37.4255 76.7362C37.4092 76.9468 37.4558 77.1577 37.5594 77.3423C37.663 77.5269 37.8189 77.6768 38.0074 77.7731C38.1959 77.8694 38.4086 77.9078 38.6186 77.8835L48.068 76.7853C48.3496 76.7525 48.6062 76.6093 48.7814 76.3872C48.9567 76.1651 49.0362 75.8822 49.0026 75.6007Z" fill="black"/>
</svg>
