<svg width="78" height="77" viewBox="0 0 78 77" fill="none" xmlns="http://www.w3.org/2000/svg">
<path d="M68.3408 35.1078C72.1648 38.5863 72.4521 44.5204 68.9814 48.3358C65.5106 52.1512 59.5759 52.4253 55.752 48.9468C51.1505 44.761 50.2271 38.6872 49.1579 31.6543C47.8956 23.3528 46.4651 13.9438 38.2252 6.44825C28.9203 -2.01614 14.4793 -1.34914 6.03373 7.93513C-2.41182 17.2194 -1.71261 31.6589 7.59238 40.1232C10.3656 42.6459 14.1389 44.614 17.9879 46.4474C16.2075 47.2905 14.5598 48.4858 13.1547 50.0305C7.37004 56.3896 7.84894 66.2795 14.2223 72.0771C20.5956 77.8747 30.4866 77.4179 36.2713 71.0587C42.056 64.6996 41.5771 54.8097 35.2037 49.0121C32.0491 46.1425 27.4152 43.9763 22.9342 41.8814C18.7454 39.9234 14.4144 37.8987 11.7887 35.5102C5.03308 29.3649 4.52543 18.8813 10.657 12.1408C16.7886 5.40024 27.2734 4.91597 34.029 11.0613C40.626 17.0623 41.7719 24.5993 42.9851 32.5788C44.1289 40.1013 45.3114 47.8797 51.5557 53.5598C57.929 59.3574 67.82 58.9006 73.6047 52.5414C79.3894 46.1823 78.9105 36.2924 72.5371 30.4948L68.3408 35.1078ZM31.648 66.8531C28.1772 70.6685 22.2425 70.9426 18.4186 67.4641C14.5946 63.9856 14.3073 58.0516 17.778 54.2361C21.2488 50.4207 27.1835 50.1466 31.0074 53.6251C34.8314 57.1036 35.1187 63.0377 31.648 66.8531Z" fill="black"/>
</svg>
