<svg width="95" height="24" viewBox="0 0 95 24" fill="none" xmlns="http://www.w3.org/2000/svg">
<path d="M0.8435 23V0.599998H6.0275V18.776H17.2595V23H0.8435ZM30.661 23.384C28.8903 23.384 27.2477 23.096 25.733 22.52C24.2397 21.944 22.9383 21.1333 21.829 20.088C20.741 19.0427 19.8877 17.816 19.269 16.408C18.6717 15 18.373 13.464 18.373 11.8C18.373 10.136 18.6717 8.6 19.269 7.192C19.8877 5.784 20.7517 4.55733 21.861 3.512C22.9703 2.46667 24.2717 1.656 25.765 1.08C27.2583 0.503999 28.8797 0.216 30.629 0.216C32.3997 0.216 34.021 0.503999 35.493 1.08C36.9863 1.656 38.277 2.46667 39.365 3.512C40.4743 4.55733 41.3383 5.784 41.957 7.192C42.5757 8.57867 42.885 10.1147 42.885 11.8C42.885 13.464 42.5757 15.0107 41.957 16.44C41.3383 17.848 40.4743 19.0747 39.365 20.12C38.277 21.144 36.9863 21.944 35.493 22.52C34.021 23.096 32.4103 23.384 30.661 23.384ZM30.629 18.968C31.6317 18.968 32.549 18.7973 33.381 18.456C34.2343 18.1147 34.981 17.624 35.621 16.984C36.261 16.344 36.7517 15.5867 37.093 14.712C37.4557 13.8373 37.637 12.8667 37.637 11.8C37.637 10.7333 37.4557 9.76267 37.093 8.888C36.7517 8.01333 36.261 7.256 35.621 6.616C35.0023 5.976 34.2663 5.48533 33.413 5.144C32.5597 4.80267 31.6317 4.632 30.629 4.632C29.6263 4.632 28.6983 4.80267 27.845 5.144C27.013 5.48533 26.277 5.976 25.637 6.616C24.997 7.256 24.4957 8.01333 24.133 8.888C23.7917 9.76267 23.621 10.7333 23.621 11.8C23.621 12.8453 23.7917 13.816 24.133 14.712C24.4957 15.5867 24.9863 16.344 25.605 16.984C26.245 17.624 26.9917 18.1147 27.845 18.456C28.6983 18.7973 29.6263 18.968 30.629 18.968ZM57.597 23.384C55.8263 23.384 54.1943 23.1067 52.701 22.552C51.229 21.976 49.9383 21.1653 48.829 20.12C47.741 19.0747 46.8877 17.848 46.269 16.44C45.6717 15.032 45.373 13.4853 45.373 11.8C45.373 10.1147 45.6717 8.568 46.269 7.16C46.8877 5.752 47.7517 4.52533 48.861 3.48C49.9703 2.43467 51.2717 1.63467 52.765 1.08C54.2583 0.503999 55.901 0.216 57.693 0.216C59.677 0.216 61.4583 0.546666 63.037 1.208C64.637 1.86933 65.981 2.82933 67.069 4.088L63.741 7.16C62.9303 6.30667 62.045 5.67733 61.085 5.272C60.125 4.84533 59.0797 4.632 57.949 4.632C56.861 4.632 55.869 4.80267 54.973 5.144C54.077 5.48533 53.2983 5.976 52.637 6.616C51.997 7.256 51.4957 8.01333 51.133 8.888C50.7917 9.76267 50.621 10.7333 50.621 11.8C50.621 12.8453 50.7917 13.8053 51.133 14.68C51.4957 15.5547 51.997 16.3227 52.637 16.984C53.2983 17.624 54.0663 18.1147 54.941 18.456C55.837 18.7973 56.8183 18.968 57.885 18.968C58.909 18.968 59.901 18.808 60.861 18.488C61.8423 18.1467 62.7917 17.5813 63.709 16.792L66.653 20.536C65.437 21.4533 64.0183 22.1573 62.397 22.648C60.797 23.1387 59.197 23.384 57.597 23.384ZM61.917 19.864V11.448H66.653V20.536L61.917 19.864ZM82.3485 23.384C80.5778 23.384 78.9352 23.096 77.4205 22.52C75.9272 21.944 74.6258 21.1333 73.5165 20.088C72.4285 19.0427 71.5752 17.816 70.9565 16.408C70.3592 15 70.0605 13.464 70.0605 11.8C70.0605 10.136 70.3592 8.6 70.9565 7.192C71.5752 5.784 72.4392 4.55733 73.5485 3.512C74.6578 2.46667 75.9592 1.656 77.4525 1.08C78.9458 0.503999 80.5672 0.216 82.3165 0.216C84.0872 0.216 85.7085 0.503999 87.1805 1.08C88.6738 1.656 89.9645 2.46667 91.0525 3.512C92.1618 4.55733 93.0258 5.784 93.6445 7.192C94.2632 8.57867 94.5725 10.1147 94.5725 11.8C94.5725 13.464 94.2632 15.0107 93.6445 16.44C93.0258 17.848 92.1618 19.0747 91.0525 20.12C89.9645 21.144 88.6738 21.944 87.1805 22.52C85.7085 23.096 84.0978 23.384 82.3485 23.384ZM82.3165 18.968C83.3192 18.968 84.2365 18.7973 85.0685 18.456C85.9218 18.1147 86.6685 17.624 87.3085 16.984C87.9485 16.344 88.4392 15.5867 88.7805 14.712C89.1432 13.8373 89.3245 12.8667 89.3245 11.8C89.3245 10.7333 89.1432 9.76267 88.7805 8.888C88.4392 8.01333 87.9485 7.256 87.3085 6.616C86.6898 5.976 85.9538 5.48533 85.1005 5.144C84.2472 4.80267 83.3192 4.632 82.3165 4.632C81.3138 4.632 80.3858 4.80267 79.5325 5.144C78.7005 5.48533 77.9645 5.976 77.3245 6.616C76.6845 7.256 76.1832 8.01333 75.8205 8.888C75.4792 9.76267 75.3085 10.7333 75.3085 11.8C75.3085 12.8453 75.4792 13.816 75.8205 14.712C76.1832 15.5867 76.6738 16.344 77.2925 16.984C77.9325 17.624 78.6792 18.1147 79.5325 18.456C80.3858 18.7973 81.3138 18.968 82.3165 18.968Z" fill="black"/>
</svg>
