<svg width="20" height="15" viewBox="0 0 20 15" fill="none" xmlns="http://www.w3.org/2000/svg">
<path d="M19.6569 1.53902C19.5828 1.10773 19.3768 0.707608 19.0652 0.390007C18.6382 0.214308 18.1795 0.121475 17.7152 0.116814C14.4142 -0.0558655 11.1055 -0.037083 7.80687 0.17306C4.45687 0.381972 1.42354 0.807831 0.465208 1.46671C0.304508 1.6102 0.201263 1.80361 0.173541 2.01309C0.0349554 3.05739 -0.020762 4.11037 0.00687448 5.16285C-0.00635353 7.87059 0.13274 10.577 0.423541 13.2702C0.428875 13.303 0.440951 13.3345 0.45906 13.3627C0.477169 13.3909 0.500944 13.4154 0.528991 13.4346C0.557037 13.4538 0.588789 13.4675 0.62238 13.4747C0.655971 13.482 0.690724 13.4827 0.724599 13.4768C0.758473 13.4709 0.790785 13.4585 0.819637 13.4404C0.848489 13.4223 0.873298 13.3989 0.892608 13.3714C0.911917 13.3439 0.925338 13.313 0.932081 13.2804C0.938824 13.2479 0.938754 13.2144 0.931875 13.1819C0.806875 12.4185 0.690208 9.96783 0.673541 7.46892C0.636347 5.83073 0.691985 4.19181 0.840208 2.55948C2.20687 3.44334 4.90687 5.17088 7.11521 6.32793L8.33187 6.90646C8.98557 7.25164 9.70079 7.47515 10.4402 7.56534C10.7765 7.51315 11.0992 7.39854 11.3902 7.22786C11.6168 7.11108 11.8366 6.98232 12.0485 6.84218L13.2485 6.03867C13.5319 5.83779 13.8069 5.64495 14.0819 5.41997C15.7008 4.2249 17.2143 2.90263 18.6069 1.46671C18.6069 1.55509 18.6652 1.65955 18.6902 1.77204C18.9331 3.03044 19.0476 4.30878 19.0319 5.58871C19.0749 7.78083 18.9747 9.97339 18.7319 12.1534C18.7319 12.3301 18.6735 12.5149 18.6485 12.6194C18.4985 12.6194 18.2819 12.6194 18.0735 12.6194C16.5819 12.764 13.4069 12.989 10.1735 13.1819C6.51521 13.3988 2.79021 13.5836 1.37354 13.6158C1.33524 13.6158 1.29731 13.623 1.26193 13.6372C1.22654 13.6513 1.19439 13.672 1.1673 13.6981C1.14022 13.7242 1.11873 13.7552 1.10408 13.7894C1.08942 13.8235 1.08187 13.8601 1.08187 13.897C1.08405 13.9723 1.11661 14.0438 1.17264 14.0963C1.22866 14.1489 1.30373 14.1782 1.38187 14.1782C3.27354 14.1782 9.25687 13.9452 13.7402 13.7122C15.8735 13.6077 17.6652 13.4952 18.5152 13.4149C18.7611 13.4017 19.0031 13.3502 19.2319 13.2622C19.3241 13.2052 19.3944 13.1205 19.4319 13.0212C19.5231 12.7771 19.5846 12.5236 19.6152 12.2659C19.8927 10.0423 20.0235 7.8041 20.0069 5.5646C20.0253 4.21499 19.9081 2.86683 19.6569 1.53902ZM14.3819 4.17453C13.3569 4.91376 12.3152 5.60478 11.5152 6.07081C11.1734 6.31342 10.7897 6.49569 10.3819 6.60916C10.012 6.56376 9.65361 6.45491 9.32354 6.28776C8.57354 5.99046 7.60687 5.53246 6.58187 5.01018C4.45687 3.95758 2.10687 2.66394 0.948541 2.01309C1.93187 1.45867 4.75687 1.20959 7.85687 1.04888C11.1155 0.874622 14.3816 0.874622 17.6402 1.04888H18.1569C16.9835 2.18255 15.7215 3.22752 14.3819 4.17453Z" fill="black"/>
<path d="M14.7402 9.02783C15.0236 9.29299 15.3152 9.55011 15.5736 9.79117C16.4069 10.5384 17.2402 11.1893 17.6235 11.5508C17.6795 11.6029 17.7542 11.632 17.8319 11.632C17.9096 11.632 17.9843 11.6029 18.0402 11.5508C18.0679 11.5247 18.09 11.4934 18.105 11.4589C18.12 11.4244 18.1278 11.3874 18.1278 11.35C18.1278 11.3126 18.12 11.2755 18.105 11.241C18.09 11.2065 18.0679 11.1753 18.0402 11.1491C17.6819 10.7393 17.0152 9.97597 16.2235 9.14836C15.9569 8.87517 15.6791 8.60733 15.3902 8.34485C15.1069 8.07969 14.8152 7.81454 14.5569 7.54134C14.2985 7.26815 13.8819 6.99496 13.5652 6.73784C12.9902 6.36019 12.5652 6.73784 12.9736 7.21191C13.2569 7.5092 13.5652 7.83864 13.9069 8.17612C14.2486 8.51359 14.4569 8.76268 14.7402 9.02783Z" fill="black"/>
<path d="M3.83188 9.783C2.96626 10.6096 2.14836 11.4814 1.38188 12.3944C1.35671 12.4224 1.3375 12.4548 1.32534 12.49C1.31319 12.5251 1.30832 12.5622 1.31103 12.5991C1.31374 12.636 1.32397 12.6721 1.34113 12.7052C1.35829 12.7383 1.38205 12.7679 1.41105 12.7921C1.44005 12.8164 1.47372 12.8349 1.51014 12.8467C1.54657 12.8584 1.58503 12.8631 1.62334 12.8605C1.66164 12.8578 1.69904 12.848 1.73339 12.8314C1.76774 12.8149 1.79838 12.792 1.82355 12.764C2.31521 12.2819 3.23188 11.5507 4.23188 10.691C4.75688 10.233 5.30688 9.75086 5.81521 9.25269C6.32355 8.75451 6.99855 8.03135 7.48188 7.47693C7.96521 6.92251 7.36521 6.67342 6.79855 7.16356C6.36521 7.53318 5.89855 7.91886 5.40688 8.34472C4.91521 8.77058 4.34021 9.3009 3.83188 9.783Z" fill="black"/>
</svg>
