<svg width="86" height="86" viewBox="0 0 86 86" fill="none" xmlns="http://www.w3.org/2000/svg">
<path fill-rule="evenodd" clip-rule="evenodd" d="M43.9316 58.265C44.1108 58.265 44.2183 58.265 44.2899 58.265H43.9316ZM44.2899 58.265C44.5408 57.7633 44.2899 57.9067 43.9316 58.265C43.6091 58.0858 43.1074 57.62 42.6058 57.2975C38.6283 54.8608 29.7058 48.8408 27.1258 44.935C24.6774 41.4064 23.342 37.2254 23.2916 32.9308C23.1604 31.0152 23.6558 29.1089 24.7029 27.4994C25.75 25.8899 27.2921 24.6646 29.0966 24.0083C30.8019 23.4156 32.5945 23.1128 34.3999 23.1125C35.9457 23.0937 37.4421 23.6564 38.5924 24.6892C39.18 25.3417 39.6855 26.0637 40.0974 26.8392C40.8566 28.148 41.5386 29.5 42.1399 30.8883C42.2976 31.2132 42.5359 31.4922 42.832 31.6988C43.1281 31.9055 43.4722 32.0328 43.8315 32.0687C44.1908 32.1047 44.5533 32.048 44.8844 31.9041C45.2156 31.7602 45.5044 31.5338 45.7233 31.2467C45.7233 31.2467 47.4433 28.6308 49.3066 26.4092C49.9528 25.4818 50.7384 24.6598 51.6358 23.9725C52.6166 23.323 53.7477 22.9358 54.9208 22.848C56.0939 22.7601 57.27 22.9746 58.3366 23.4708C60.643 24.6976 62.4815 26.6494 63.5683 29.025C64.8881 31.7415 65.0939 34.8664 64.1416 37.7325C62.3263 42.3115 59.5246 46.4345 55.9358 49.8083L49.2708 55.9717C49.0361 56.1845 48.8906 56.4782 48.8636 56.7939C48.8365 57.1095 48.93 57.4237 49.1251 57.6733C49.3203 57.9229 49.6026 58.0894 49.9155 58.1393C50.2283 58.1892 50.5485 58.1189 50.8116 57.9425L57.9783 51.7433C62.0146 48.1704 65.1983 43.7378 67.2949 38.7717C67.9742 36.9628 68.289 35.0375 68.2214 33.1065C68.1537 31.1755 67.7049 29.2769 66.9008 27.52C65.5601 24.3379 63.1871 21.6998 60.1641 20.0308C58.5266 19.1927 56.7014 18.7889 54.8631 18.8579C53.0248 18.9269 51.235 19.4665 49.6649 20.425C48.6134 21.1312 47.6717 21.9885 46.8699 22.9692C46.0816 23.9008 45.2574 24.9758 44.5049 25.9433C44.2899 25.5492 44.0749 25.1192 43.8241 24.725C43.221 23.6253 42.487 22.6026 41.6383 21.6792C40.0491 20.1843 38.0058 19.2635 35.8333 19.0633C33.0368 18.7739 30.2116 19.1547 27.5916 20.1742C25.5236 20.9145 23.6983 22.2081 22.3146 23.914C20.9309 25.62 20.0418 27.6729 19.7441 29.8492C19.1466 35.8416 20.8789 41.834 24.5816 46.5833C28.9167 51.1454 33.9185 55.0237 39.4166 58.0858C41.0649 59.0892 42.4266 59.8417 42.9999 60.1642L43.5733 60.415C43.7791 60.4935 44.0046 60.5046 44.2171 60.4467C44.4297 60.3887 44.6183 60.2647 44.7558 60.0925C44.8585 59.9828 44.9371 59.8528 44.9865 59.7108C45.0359 59.5689 45.0549 59.4181 45.0424 59.2683C45.0258 59.051 44.9455 58.8434 44.8117 58.6714C44.6779 58.4994 44.4965 58.3705 44.2899 58.3008V58.265Z" fill="black"/>
<path fill-rule="evenodd" clip-rule="evenodd" d="M78.045 13.0792C78.045 13.6167 78.045 14.6917 78.045 16.1608C77.8658 23.7575 77.1133 41.6383 76.6833 47.2283C76.5513 50.4009 76.0707 53.5493 75.25 56.6167C74.6685 58.5045 73.7186 60.2583 72.455 61.7767C69.2921 65.5345 65.6821 68.8919 61.705 71.7742C57.8247 74.7322 53.6164 77.2332 49.1633 79.2275L41.6025 81.9867C36.0087 80.1886 30.7792 77.41 26.1583 73.7808C21.19 70.5058 16.8257 66.396 13.2583 61.6333C10.9292 58.05 9.92582 50.4892 9.45998 42.3192C9.03957 32.986 9.26706 23.635 10.1408 14.3333C10.1408 13.33 10.4633 12.255 10.4992 11.9683C14.7992 6.84417 23.7216 4.22834 33.5758 3.26084C47.9091 1.89917 64.1058 4.1925 72.4908 8.4925C72.6201 8.56116 72.7617 8.60358 72.9075 8.61732C73.0533 8.63105 73.2003 8.61584 73.3402 8.57255C73.4801 8.52925 73.61 8.45874 73.7225 8.36506C73.835 8.27138 73.9279 8.15638 73.9958 8.02667C74.1251 7.76378 74.1489 7.46137 74.0623 7.1815C73.9757 6.90164 73.7852 6.66554 73.53 6.52167C64.93 1.89917 48.1242 -0.859996 33.325 0.250837C22.2167 1.075 12.2908 4.15667 7.48915 9.9975C6.9134 11.2631 6.57339 12.6232 6.48582 14.0108C5.4507 23.5293 5.16316 33.1142 5.62582 42.6775C6.05582 51.7792 7.45332 60.1642 9.99748 64.1775C13.8623 69.3997 18.6172 73.9 24.0442 77.4717C29.2765 81.3592 35.1799 84.2501 41.4591 86C42.3428 85.9636 43.2145 85.782 44.0392 85.4625C46.1892 84.7458 49.5217 83.42 51.2058 82.7392C55.9018 80.5626 60.3274 77.8447 64.3925 74.6408C68.4877 71.5113 72.193 67.9023 75.4292 63.8908C76.8988 62.0283 77.9939 59.8988 78.6542 57.62C79.4522 54.3332 79.8848 50.9684 79.9442 47.5867C80.2667 41.9608 80.6967 23.9725 80.7683 16.34C80.7683 14.7992 80.7683 13.6883 80.7683 13.1508C80.7821 12.7855 80.6624 12.4276 80.4316 12.1441C80.2008 11.8605 79.8747 11.6707 79.5142 11.61C79.3481 11.605 79.1828 11.6341 79.0284 11.6954C78.874 11.7566 78.7337 11.8488 78.6163 11.9663C78.4988 12.0838 78.4066 12.224 78.3453 12.3784C78.2841 12.5328 78.255 12.6981 78.26 12.8642L78.045 13.0792Z" fill="black"/>
</svg>
