<svg width="90" height="90" viewBox="0 0 90 90" fill="none" xmlns="http://www.w3.org/2000/svg">
<g clip-path="url(#clip0_1_37)">
<path fill-rule="evenodd" clip-rule="evenodd" d="M83.5125 47.55L82.575 45.3C82.4033 44.9174 82.115 44.5988 81.7512 44.39C81.3875 44.1812 80.967 44.0928 80.55 44.1375C79.35 44.325 78.1125 44.775 76.8 44.8875C76.5095 44.8948 76.2226 44.8217 75.9711 44.6761C75.7196 44.5304 75.5133 44.3181 75.375 44.0625C75.2302 43.8117 75.154 43.5271 75.154 43.2375C75.154 42.9479 75.2302 42.6633 75.375 42.4125C75.8693 41.4972 76.5161 40.6729 77.2875 39.975C77.5875 39.675 78.45 38.9625 78.9375 38.4C79.3807 37.9298 79.646 37.3198 79.6875 36.675C79.7243 36.2167 79.6603 35.7559 79.5 35.325C79.5 34.8375 78.8625 34.1625 78.7875 33.8625L76.575 29.325C76.2057 28.6004 75.7924 27.8991 75.3375 27.225C74.9693 26.732 74.4375 26.3863 73.8375 26.25C73.3557 26.1443 72.8568 26.1443 72.375 26.25C71.925 26.25 71.25 26.8125 70.9875 26.925L67.5 28.575C67.1625 28.2 66.825 27.9 66.75 27.825C65.9257 26.9466 64.8943 26.289 63.75 25.9125C62.6371 25.5558 61.4609 25.4407 60.3 25.575C58.3095 25.7921 56.481 26.7735 55.2 28.3125C54.562 29.0553 54.083 29.9211 53.7928 30.8564C53.5025 31.7916 53.4071 32.7764 53.5125 33.75C53.597 34.2875 53.7352 34.8151 53.925 35.325C54.009 35.5689 54.1092 35.807 54.225 36.0375L52.8 36.6375L50.55 37.725C48.6 39.4125 49.425 41.2125 51.525 40.3875L53.8875 39.45C54.5625 39.225 55.4625 39.075 56.25 38.8125C56.7114 38.6532 57.152 38.4391 57.5625 38.175C57.8792 37.8966 58.095 37.5214 58.1764 37.1077C58.2577 36.6941 58.2001 36.2651 58.0125 35.8875C58.0125 35.6625 57.6 35.1 57.6 35.0625L57.15 33.4125C57.1431 32.4702 57.4912 31.5598 58.125 30.8625C58.8292 30.2781 59.7228 29.9713 60.6375 30C61.178 29.9853 61.7153 30.0876 62.2125 30.3C62.6486 30.4802 63.0345 30.7633 63.3375 31.125C63.3375 31.125 64.125 32.475 64.425 32.925C64.6555 33.3106 64.9786 33.6325 65.3649 33.8617C65.7512 34.0909 66.1887 34.22 66.6375 34.2375C67.0905 34.1606 67.5238 33.9949 67.9125 33.75L69.1125 33.0375L72.45 31.725L74.5125 35.775L74.7 36.3375L74.0625 36.7875C72.7103 38.2088 71.7424 39.951 71.25 41.85C71.0765 42.6539 71.0876 43.4866 71.2825 44.2855C71.4774 45.0845 71.8509 45.8288 72.375 46.4625C72.8233 47.1147 73.4142 47.6562 74.1029 48.0461C74.7917 48.4359 75.5601 48.6638 76.35 48.7125C77.5397 48.6629 78.7152 48.4354 79.8375 48.0375C80.1375 48.4875 80.55 48.9375 80.55 48.975C81.3 50.4375 82.1625 51.9 82.9125 53.3625C83.1 53.775 83.25 54.225 83.4375 54.6375C82.725 54.975 82.05 55.35 81.3 55.65C79.7625 56.2875 78.15 56.6625 76.575 57.1875C75 57.7125 73.35 58.4625 71.8125 59.1L66.1125 62.5875L62.3625 64.425C61.9547 64.609 61.6368 64.9474 61.4785 65.3659C61.3203 65.7843 61.3348 66.2485 61.5188 66.6562C61.7028 67.064 62.0412 67.382 62.4596 67.5402C62.8781 67.6985 63.3422 67.684 63.75 67.5C67.1349 66.4867 70.4432 65.2335 73.65 63.75C74.7375 63.3 75.8625 62.8875 76.95 62.3625C78.0375 61.8375 79.2 61.2375 80.25 60.6375C81.3638 59.9178 82.4402 59.1418 83.475 58.3125L83.25 62.475C83.25 65.025 83.25 65.7375 80.0625 67.9875C77.7367 69.3982 75.3188 70.651 72.825 71.7375C70.725 72.8625 68.475 73.8375 66.2625 74.775C65.1 75.3 63.8625 75.7875 62.5125 76.275C62.5125 75.3375 62.85 71.4375 61.1625 71.4375C59.475 71.4375 58.2375 72.375 58.725 75.4875C58.9125 76.725 59.1 76.3125 59.5125 77.5125L50.1375 81.2625C46.6875 82.725 43.5 84.4875 40.0875 85.875C38.698 86.4506 37.2694 86.9268 35.8125 87.3C35.4395 87.3845 35.1154 87.6138 34.9115 87.9373C34.7076 88.2608 34.6405 88.652 34.725 89.025C34.8095 89.398 35.0388 89.7221 35.3623 89.926C35.6858 90.13 36.077 90.197 36.45 90.1125C38.0821 89.7692 39.6865 89.3055 41.25 88.725C44.775 87.6 48.1125 86.1 51.6 84.975C56.325 83.325 61.1625 81.9 65.775 80.0625C68.9456 78.7812 72.0274 77.2904 75 75.6C77.6204 74.2247 80.1282 72.6448 82.5 70.875C84.1234 69.5291 85.4079 67.8207 86.25 65.8875C86.4593 65.4959 86.5627 65.0564 86.55 64.6125C86.55 63.7875 86.175 62.625 86.1375 62.0625C85.875 50.6625 89.025 60.2625 83.5125 47.55Z" fill="black"/>
<path fill-rule="evenodd" clip-rule="evenodd" d="M31.6125 86.925C29.5133 86.0006 27.7469 84.4566 26.55 82.5C24.6039 79.1493 22.9237 75.6511 21.525 72.0375C20.625 70.0875 19.8 68.1 18.975 66.1125C17.625 63.1125 13.425 52.5 13.3125 52.1625C12.2625 49.575 11.025 47.025 10.0125 44.4375C9.59998 43.3875 9.18748 42.3375 8.81248 41.25C8.43748 40.1625 7.87498 38.175 7.49998 36.6C7.22428 35.6627 6.99896 34.7114 6.82498 33.75C6.59743 32.9232 6.59202 32.0509 6.80929 31.2213C7.02657 30.3917 7.45884 29.6341 8.06248 29.025C8.73748 28.0875 9.48748 27.225 10.2375 26.3625C10.5919 29.4518 11.1177 32.519 11.8125 35.55C12.5625 38.8875 13.8 41.475 14.8125 44.85C15.1875 46.05 15.3 46.65 15.975 48.4125C16.2339 48.7859 16.6089 49.0634 17.0417 49.2018C17.4745 49.3402 17.941 49.3318 18.3685 49.1779C18.7961 49.0239 19.1608 48.7331 19.4061 48.3506C19.6514 47.9681 19.7635 47.5153 19.725 47.0625C19.1625 45.6 19.0125 45.1125 18.5625 44.025C17.025 40.275 15.6 36.525 14.4375 32.775C13.7625 30 13.0875 27.4125 12.5625 24.75C12.5625 24.75 12.5625 24.525 12.3375 24.375C16.875 22.725 21.375 20.625 25.95 19.0125C27.9691 18.2523 30.036 17.626 32.1375 17.1375C33.5195 16.462 34.9638 15.9219 36.45 15.525C36.825 16.2375 37.3875 17.25 37.8375 18.3C38.2666 19.1912 38.5695 20.1378 38.7375 21.1125C38.7375 21.1125 38.7375 21.5625 38.7375 21.1125C38.4866 21.5471 38.1845 21.95 37.8375 22.3125C36.9788 23.2196 36.27 24.2576 35.7375 25.3875C35.4479 26.0365 35.2983 26.7393 35.2983 27.45C35.2983 28.1607 35.4479 28.8634 35.7375 29.5125C36.2565 31.007 37.2097 32.3127 38.475 33.2625C39.8222 34.2212 41.4923 34.6118 43.125 34.35H43.8375C43.8158 34.4741 43.8158 34.6009 43.8375 34.725L45.075 37.8375C46.2 39.7875 48.3 38.025 47.9625 36.45L47.025 33.525C46.794 32.7105 46.5186 31.9093 46.2 31.125C46.0676 30.8245 45.86 30.5631 45.5973 30.3661C45.3346 30.169 45.0256 30.043 44.7 30C44.3421 29.9181 43.9704 29.9181 43.6125 30C43.3125 30 42.225 30.2625 42.2625 30.6375C41.7436 30.5791 41.2573 30.3556 40.875 30C40.348 29.5095 39.9599 28.8886 39.75 28.2C39.6826 28.0529 39.6477 27.893 39.6477 27.7312C39.6477 27.5695 39.6826 27.4096 39.75 27.2625C40.305 26.4464 40.9601 25.7031 41.7 25.05C42.5197 24.1829 43.1123 23.1265 43.425 21.975C43.5618 20.6975 43.3681 19.4062 42.8625 18.225C42.1311 16.2616 41.2276 14.3667 40.1625 12.5625C39.8495 12.0797 39.4027 11.6984 38.8766 11.4653C38.3505 11.2323 37.7679 11.1574 37.2 11.25C35.0582 11.6495 32.942 12.1754 30.8625 12.825C28.6523 13.544 26.4967 14.4213 24.4125 15.45C19.65 17.5875 15 20.2875 10.3875 22.5L9.56248 23.0625C8.32498 24.3375 6.97498 25.65 5.81248 27.075C4.96278 28.0721 4.19764 29.1383 3.52498 30.2625C3.34559 30.6516 3.24369 31.0719 3.22498 31.5C3.22498 32.325 3.41248 33.525 3.41248 34.0125C3.41248 35.175 3.63748 36.3 3.86248 37.4625C4.08748 38.625 4.46248 40.725 4.79998 42.375C5.17859 44.0307 5.66718 45.6593 6.26248 47.25C7.08748 49.5 8.02498 51.75 8.88748 54C10.5 58.0875 12.075 62.175 13.8375 66.1875C15.075 68.8875 16.425 71.55 17.85 74.1375C19.5592 77.8198 21.5658 81.3565 23.85 84.7125C25.6039 87.1373 28.0874 88.9375 30.9375 89.85C31.2056 89.9238 31.4901 89.913 31.7518 89.819C32.0136 89.725 32.24 89.5525 32.4 89.325C32.6121 89.5361 32.8899 89.6684 33.1875 89.7C33.3758 89.7154 33.5653 89.6921 33.7443 89.6317C33.9233 89.5712 34.0881 89.4748 34.2286 89.3484C34.369 89.222 34.4822 89.0683 34.5611 88.8966C34.64 88.7249 34.683 88.5389 34.6875 88.35C35.1082 86.6626 35.3966 84.9448 35.55 83.2125C34.5375 81.2625 33.45 80.625 31.8 82.05C31.4146 83.6465 31.3509 85.3037 31.6125 86.925Z" fill="black"/>
<path fill-rule="evenodd" clip-rule="evenodd" d="M43.5375 6.5625L44.5875 7.9125C44.9625 8.325 45.3375 8.7375 45.75 9.1125C49.5 12.8625 49.5 12.8625 50.475 12.525C52.1625 11.7 49.725 6.825 49.425 6.3C49.0905 5.69563 48.674 5.14039 48.1875 4.65C47.7413 4.14357 47.238 3.69055 46.6875 3.3C41.775 -0.450002 40.9125 0.824998 40.575 1.35C40.2375 1.875 40.425 2.7 43.5375 6.5625Z" fill="black"/>
<path fill-rule="evenodd" clip-rule="evenodd" d="M58.2375 11.25C58.65 11.25 59.4375 11.6625 61.3875 7.5C61.5868 7.1071 61.7379 6.6916 61.8375 6.2625C61.8375 5.85 61.8375 5.4375 62.0625 5.025C62.4375 1.05 62.5875 0.524998 61.575 0.0749984C61.1625 0.0749984 59.9625 -0.750002 57.825 3.825C57.5894 4.24899 57.4127 4.70319 57.3 5.175C57.1586 5.62564 57.0705 6.09132 57.0375 6.5625C57.0375 6.5625 56.85 11.25 58.2375 11.25Z" fill="black"/>
<path fill-rule="evenodd" clip-rule="evenodd" d="M72.1125 15C72.675 14.7375 73.2 14.4375 73.725 14.1375L75.3375 13.125C79.725 10.2375 80.5875 10.05 80.1 8.7C79.875 8.1375 79.5375 6.9375 73.35 9C72.6521 9.24553 71.9749 9.54649 71.325 9.9C70.6753 10.2687 70.0603 10.6954 69.4875 11.175C68.5875 12 64.95 15.825 66.3 17.1C67.65 18.375 67.1625 17.5875 72.1125 15Z" fill="black"/>
<path fill-rule="evenodd" clip-rule="evenodd" d="M60 64.65L57.8625 59.1C58.5 58.725 59.2125 58.425 59.25 58.3875C60.5242 57.3197 61.5159 55.9545 62.1375 54.4125C62.6054 53.2203 62.7225 51.9191 62.475 50.6625C62.3423 49.9009 62.054 49.1749 61.6282 48.5296C61.2023 47.8844 60.6481 47.3339 60 46.9125C58.3444 45.8442 56.3706 45.3806 54.4125 45.6L52.2375 46.05L51.75 45.45L49.3875 41.25C49.3875 41.25 48.7125 39.1125 48.075 38.925C46.275 38.4 42.8625 41.5875 41.4375 42.45C40.8826 42.787 40.3064 43.0876 39.7125 43.35C39.375 43.35 37.8375 43.9125 37.2375 44.2125C36.8109 44.4584 36.4804 44.8418 36.3 45.3C36.2361 45.6345 36.2361 45.978 36.3 46.3125C36.3 46.875 36.7875 48 36.7875 48.45C36.8461 49.4005 36.6791 50.3514 36.3 51.225C36.0121 51.9359 35.4803 52.5209 34.8 52.875C34.5708 53.0031 34.3126 53.0703 34.05 53.0703C33.7874 53.0703 33.5292 53.0031 33.3 52.875C32.481 52.4142 31.7559 51.8036 31.1625 51.075C30.5837 50.3587 29.9572 49.6821 29.2875 49.05C28.6739 48.5722 27.9269 48.297 27.15 48.2625C26.6171 48.2937 26.0892 48.3817 25.575 48.525C24.225 48.825 22.8375 49.5375 21.5625 49.6875H21.075C19.875 49.2 16.65 51.375 17.1 52.65C17.1 52.9125 20.85 61.575 22.1625 64.65C23.1375 67.0875 24.1125 69.4875 25.1625 71.85C25.8763 73.6659 26.7814 75.4007 27.8625 77.025C28.5358 77.8543 29.3326 78.5753 30.225 79.1625C31.6946 79.9536 33.3219 80.4077 34.9888 80.492C36.6557 80.5764 38.3205 80.2887 39.8625 79.65C42.4289 78.9465 44.9365 78.0437 47.3625 76.95C49.6891 75.8198 51.9548 74.5681 54.15 73.2C55.0875 72.6375 56.85 71.925 58.2 71.0625C58.2 71.3625 60.7875 69.525 61.0125 68.625C61.098 67.2268 60.744 65.8369 60 64.65ZM56.5125 55.2C56.5125 55.2 54.825 56.325 54.2625 56.775C53.8739 57.0529 53.5771 57.4405 53.4101 57.8881C53.2431 58.3357 53.2134 58.823 53.325 59.2875L55.5 66L55.875 66.675L55.125 67.0875C53.85 67.8 52.275 68.4375 51.375 68.925C49.3125 70.1625 47.2125 71.325 45 72.375C42.8551 73.4019 40.6364 74.2668 38.3625 74.9625C37.2587 75.3399 36.1125 75.5792 34.95 75.675C33.9494 75.7647 32.9424 75.5969 32.025 75.1875C31.4146 74.8608 30.8982 74.3831 30.525 73.8C29.7079 72.6057 28.9809 71.3523 28.35 70.05C26.85 67.2375 25.4625 64.3875 24.1125 61.5C22.7625 58.6125 22.05 56.85 21.0375 54.4875H21.825C28.725 52.6875 26.175 53.1 27.5625 54.4875C28.8058 55.8623 30.381 56.8952 32.1375 57.4875C32.8742 57.7215 33.6518 57.799 34.4202 57.7151C35.1887 57.6311 35.9311 57.3876 36.6 57C37.8491 56.2994 38.8461 55.2236 39.45 53.925C40.277 52.2133 40.5896 50.2984 40.35 48.4125C40.2569 48.0685 40.0906 47.7488 39.8625 47.475C40.3875 47.2125 40.95 46.7625 41.1 46.6875C41.7963 46.3109 42.4722 45.8978 43.125 45.45C44.2875 44.625 45.4125 43.6875 46.6125 42.8625L48.8625 47.325C49.0767 47.9693 49.3662 48.5861 49.725 49.1625C50.0164 49.5296 50.4281 49.782 50.8875 49.875C51.3972 49.9504 51.9153 49.9504 52.425 49.875C53.175 49.875 54.0375 49.5 54.7125 49.4625C55.6387 49.409 56.5613 49.6169 57.375 50.0625C57.6862 50.2055 57.9599 50.4188 58.1747 50.6856C58.3894 50.9524 58.5393 51.2654 58.6125 51.6C58.6953 52.2778 58.5502 52.9638 58.2 53.55C57.7394 54.1827 57.1827 54.7395 56.55 55.2H56.5125Z" fill="black"/>
</g>
<defs>
<clipPath id="clip0_1_37">
<rect width="90" height="90" fill="white"/>
</clipPath>
</defs>
</svg>
