<svg width="293" height="293" viewBox="0 0 293 293" fill="none" xmlns="http://www.w3.org/2000/svg">
<g clip-path="url(#clip0_39_46)">
<mask id="mask0_39_46" style="mask-type:luminance" maskUnits="userSpaceOnUse" x="0" y="0" width="293" height="293">
<path d="M99.2984 0.000570133L292.245 99.299L192.947 292.246L0 192.948L99.2984 0.000570133Z" fill="white"/>
</mask>
<g mask="url(#mask0_39_46)">
<path d="M173.18 239.498C169.563 246.528 160.931 249.294 153.901 245.676C146.871 242.058 144.105 233.426 147.723 226.396C151.34 219.367 159.972 216.601 167.002 220.219C174.032 223.837 176.798 232.468 173.18 239.498Z" fill="#F68D36"/>
<path d="M167.003 220.218C164.971 219.173 162.807 218.664 160.668 218.633C163.79 222.873 164.447 228.68 161.875 233.679C159.302 238.678 154.194 241.518 148.93 241.443C150.237 243.22 151.938 244.669 153.901 245.676C160.931 249.294 169.562 246.528 173.18 239.497C176.798 232.468 174.032 223.836 167.003 220.218Z" fill="#FF0000"/>
<path d="M21.4181 186.081C22.2774 184.569 24.1941 181.919 28.3921 178.097C34.2526 172.757 42.8735 166.731 53.32 160.677C75.927 147.582 106.38 134.598 139.073 124.125C169.235 114.457 199.561 107.536 224.47 104.631C249.876 101.666 264.955 103.439 270.826 106.166L283.768 102.015C277.732 83.1795 211.213 87.6553 135.192 112.013C59.1721 136.376 2.44059 171.395 8.47616 190.231L21.4181 186.081Z" fill="#FFD600"/>
<path d="M128.235 30.1142C125.618 35.1994 119.374 37.2006 114.288 34.5833C109.203 31.9663 107.202 25.722 109.819 20.6368C112.436 15.5516 118.68 13.5504 123.766 16.1675C128.851 18.7847 130.852 25.029 128.235 30.1142Z" fill="#FFD54F"/>
<path d="M190.055 275.536C187.438 280.621 181.194 282.623 176.108 280.005C171.023 277.388 169.023 271.144 171.64 266.059C174.257 260.974 180.501 258.972 185.586 261.589C190.672 264.207 192.672 270.451 190.055 275.536Z" fill="#FFD54F"/>
<path d="M253.819 128.069C251.202 133.154 244.958 135.155 239.872 132.538C234.787 129.921 232.786 123.676 235.403 118.591C238.02 113.506 244.264 111.505 249.35 114.122C254.435 116.739 256.436 122.983 253.819 128.069Z" fill="#F68D36"/>
<path d="M219.115 183.688C198.368 224.001 148.87 239.862 108.558 219.115C68.2453 198.369 52.3838 148.871 73.1303 108.558C93.8769 68.2457 143.375 52.3847 183.687 73.1313C224 93.8777 239.861 143.375 219.115 183.688Z" fill="#D0D0D0"/>
<path d="M183.687 73.1313C181.959 72.2417 180.212 71.4244 178.453 70.6681C215.009 92.8184 228.691 139.813 208.834 178.397C188.977 216.981 142.783 233.161 103.511 216.287C105.16 217.288 106.843 218.232 108.558 219.116C148.871 239.862 198.368 224.001 219.115 183.688C239.861 143.376 224 93.8778 183.687 73.1313Z" fill="#C5C5C5"/>
<path d="M98.9971 95.5808C95.3792 102.611 86.7473 105.377 79.7175 101.759C72.6874 98.1409 69.9211 89.5092 73.5391 82.479C77.1569 75.4493 85.7888 72.6835 92.8189 76.3015C99.8486 79.9193 102.615 88.551 98.9971 95.5808Z" fill="#FF0000"/>
<path d="M92.8185 76.3014C90.8582 75.29 88.69 74.7474 86.4845 74.7161C89.6058 78.956 90.2634 84.7636 87.6909 89.7622C85.1181 94.7614 80.0101 97.6014 74.7457 97.5257C76.0528 99.3025 77.7546 100.752 79.717 101.759C86.7467 105.377 95.3784 102.611 98.9964 95.5804C102.614 88.5507 99.8483 79.9192 92.8185 76.3014Z" fill="#FF0000"/>
<path d="M270.827 106.166C269.968 107.678 268.051 110.328 263.853 114.15C257.993 119.49 249.372 125.516 238.925 131.569C216.318 144.664 185.865 157.648 153.172 168.122C123.01 177.79 92.6842 184.71 67.7752 187.616C42.3692 190.581 27.29 188.807 21.4189 186.081L8.47688 190.231C14.513 209.067 81.032 204.591 157.053 180.234C233.073 155.87 289.805 120.851 283.769 102.015L270.827 106.166Z" fill="#FFD600"/>
</g>
</g>
<defs>
<clipPath id="clip0_39_46">
<rect width="217" height="217" fill="white" transform="translate(99.2986) rotate(27.2322)"/>
</clipPath>
</defs>
</svg>
