<svg width="308" height="308" viewBox="0 0 308 308" fill="none" xmlns="http://www.w3.org/2000/svg">
<g clip-path="url(#clip0_39_136)">
<mask id="mask0_39_136" style="mask-type:luminance" maskUnits="userSpaceOnUse" x="0" y="0" width="308" height="308">
<path d="M147.258 0.835272L307.411 147.259L160.987 307.411L0.834473 160.988L147.258 0.835272Z" fill="white"/>
</mask>
<g mask="url(#mask0_39_136)">
<path d="M155.746 251.326C150.411 257.161 141.356 257.566 135.521 252.231C129.685 246.896 129.28 237.841 134.615 232.006C139.95 226.171 149.004 225.766 154.84 231.101C160.675 236.436 161.08 245.491 155.746 251.326Z" fill="#F68D36"/>
<path d="M154.84 231.1C153.154 229.559 151.199 228.5 149.143 227.91C151.043 232.82 150.155 238.596 146.362 242.746C142.568 246.895 136.894 248.296 131.834 246.842C132.629 248.9 133.891 250.745 135.521 252.231C141.356 257.566 150.411 257.16 155.746 251.325C161.08 245.49 160.675 236.435 154.84 231.1Z" fill="#FF0000"/>
<path d="M23.3041 159.978C24.5298 158.745 27.0744 156.69 32.1277 154.103C39.1835 150.487 49.083 146.932 60.7515 143.83C86.0013 137.122 118.794 132.579 153.089 131.046C184.731 129.626 215.81 130.901 240.61 134.63C265.904 138.431 279.99 144.097 284.941 148.268L298.518 147.657C297.633 127.897 232.268 114.772 152.52 118.34C72.7717 121.914 8.84195 140.83 9.72653 160.59L23.3041 159.978Z" fill="#FFD600"/>
<path d="M167.284 37.4833C163.425 41.7043 156.875 41.9979 152.654 38.1386C148.433 34.2795 148.14 27.7291 151.999 23.5082C155.858 19.2873 162.408 18.9937 166.629 22.8527C170.85 26.7121 171.144 33.2624 167.284 37.4833Z" fill="#FFD54F"/>
<path d="M162.579 290.528C158.72 294.749 152.169 295.043 147.948 291.183C143.727 287.324 143.434 280.774 147.293 276.553C151.152 272.332 157.703 272.038 161.924 275.897C166.145 279.757 166.438 286.307 162.579 290.528Z" fill="#FFD54F"/>
<path d="M262.784 164.944C258.925 169.165 252.375 169.458 248.154 165.599C243.933 161.74 243.64 155.19 247.499 150.969C251.358 146.748 257.908 146.454 262.129 150.313C266.35 154.173 266.643 160.723 262.784 164.944Z" fill="#F68D36"/>
<path d="M214.709 209.515C184.116 242.976 132.191 245.301 98.7305 214.709C65.2695 184.117 62.9439 132.192 93.5364 98.731C124.129 65.27 176.054 62.945 209.515 93.5374C242.975 124.13 245.301 176.054 214.709 209.515Z" fill="#D0D0D0"/>
<path d="M209.515 93.5373C208.08 92.2255 206.609 90.9789 205.109 89.7876C234.577 120.749 235.456 169.688 206.175 201.714C176.895 233.74 128.074 237.239 94.6021 210.657C95.9307 212.055 97.3076 213.407 98.7303 214.709C132.191 245.302 184.116 242.976 214.709 209.515C245.301 176.055 242.976 124.13 209.515 93.5373Z" fill="#C5C5C5"/>
<path d="M121.901 92.991C116.566 98.8263 107.511 99.2315 101.676 93.8968C95.8408 88.5617 95.435 79.5067 100.77 73.6714C106.105 67.8365 115.16 67.4313 120.995 72.7663C126.83 78.101 127.236 87.1561 121.901 92.991Z" fill="#FF0000"/>
<path d="M120.995 72.7661C119.368 71.2761 117.418 70.1839 115.298 69.5753C117.198 74.4853 116.31 80.2621 112.517 84.4111C108.723 88.5607 103.049 89.9616 97.9886 88.508C98.784 90.5655 100.046 92.4102 101.676 93.8969C107.511 99.2317 116.566 98.8258 121.901 92.9906C127.235 87.1556 126.83 78.1009 120.995 72.7661Z" fill="#FF0000"/>
<path d="M284.941 148.268C283.715 149.502 281.171 151.556 276.118 154.143C269.062 157.76 259.162 161.314 247.494 164.416C222.244 171.124 189.451 175.667 155.156 177.2C123.514 178.62 92.4349 177.345 67.6356 173.617C42.3414 169.815 28.2551 164.149 23.3045 159.978L9.72693 160.59C10.6121 180.349 75.9767 193.475 155.725 189.906C235.474 186.332 299.403 167.416 298.519 147.657L284.941 148.268Z" fill="#FFD600"/>
</g>
</g>
<defs>
<clipPath id="clip0_39_136">
<rect width="217" height="217" fill="white" transform="translate(147.258 0.834717) rotate(42.4358)"/>
</clipPath>
</defs>
</svg>
