<svg width="30" height="30" viewBox="0 0 30 30" fill="none" xmlns="http://www.w3.org/2000/svg">
<path d="M18.9723 8.81081L18.9723 8.81091C19.2564 9.525 19.9059 10.0279 20.6683 10.0918L28.5673 10.7542C29.4314 10.8267 29.8579 12.0103 29.1367 12.6565L23.1186 18.049L23.1185 18.049C22.5496 18.559 22.3078 19.3501 22.4784 20.098L24.3171 28.161C24.5436 29.1542 23.5339 29.7991 22.8188 29.3423C22.8188 29.3423 22.8187 29.3423 22.8187 29.3423L16.056 25.0215C15.4089 24.6079 14.5912 24.6079 13.944 25.0215L7.18132 29.3423C7.18131 29.3423 7.1813 29.3423 7.1813 29.3423C6.46619 29.7991 5.45644 29.1542 5.68295 28.161L7.52163 20.098C7.52163 20.098 7.52163 20.098 7.52164 20.098C7.6922 19.3502 7.45063 18.559 6.8816 18.049L6.88156 18.049L0.863256 12.6565C0.142091 12.0103 0.568601 10.8267 1.43272 10.7542L9.33184 10.0918C10.0942 10.0279 10.7438 9.525 11.0277 8.81081L14.071 1.15729C14.4194 0.280903 15.5806 0.280902 15.9291 1.15729L18.9723 8.81081Z" fill="#FFC107" stroke="black"/>
</svg>
