<svg width="93" height="93" viewBox="0 0 93 93" fill="none" xmlns="http://www.w3.org/2000/svg">
<g clip-path="url(#clip0_39_80)">
<path d="M75.4583 66.7802C74.0342 65.5288 73.4771 63.9561 72.7356 61.9594C72.5248 61.3709 72.2925 60.8067 72.0383 60.2653C74.3157 56.0657 75.5313 51.3773 75.5732 46.6323C76.0854 46.6109 76.6076 46.583 77.1309 46.526C80.0822 46.2928 82.8136 45.1436 85.0311 43.2021C85.6917 42.6377 85.8781 41.7014 85.4839 40.9197C85.0877 40.1337 84.2188 39.7259 83.3628 39.93C82.6432 40.1027 81.9752 40.2059 81.3691 40.2371C79.4772 40.3592 77.9713 39.6411 76.0351 38.7535C75.4752 38.4889 74.917 38.2566 74.3591 38.0548C73.0044 33.4878 70.5428 29.3154 67.1961 25.9174C67.5456 25.5376 67.8979 25.1459 68.2299 24.7327C70.152 22.4804 71.2708 19.7363 71.466 16.7954C71.5339 15.9296 71.0035 15.1359 70.1724 14.8619C69.336 14.5864 68.432 14.9148 67.9727 15.662C67.5857 16.2931 67.1865 16.8382 66.7802 17.2888C65.5288 18.7129 63.9561 19.27 61.9594 20.0115C61.3718 20.2219 60.8087 20.4549 60.2675 20.7091C58.8194 19.9247 57.3104 19.2611 55.7733 18.7371C55.1688 18.5308 54.5109 18.8539 54.3046 19.459C54.0984 20.0638 54.4217 20.7215 55.0265 20.9277C55.989 21.2558 56.94 21.6432 57.8701 22.0849C56.6574 22.9242 55.5856 23.9162 54.6424 25.0731C52.9001 24.3935 51.0658 23.9245 49.1769 23.6897C48.4131 22.952 47.6718 22.2307 47.2909 21.443C47.0013 20.858 46.8539 20.1973 46.7703 19.4901C47.84 19.5059 48.9135 19.5858 49.9729 19.7299C50.5902 19.8185 51.1916 19.378 51.2756 18.7393C51.3617 18.1061 50.9183 17.5227 50.285 17.4366C49.077 17.2722 47.8521 17.1854 46.6324 17.1745C46.611 16.6622 46.5831 16.1398 46.5262 15.6163C46.2926 12.6648 45.1436 9.93366 43.2023 7.71607C42.6381 7.05562 41.7016 6.86865 40.9199 7.26327C40.1339 7.65969 39.7268 8.5314 39.9302 9.38443C40.1029 10.104 40.2061 10.7719 40.2373 11.3781C40.3594 13.27 39.6413 14.7759 38.7536 16.7121C38.4892 17.2716 38.2576 17.8298 38.0558 18.3874C33.4899 19.7415 29.3157 22.2053 25.9182 25.5515C25.5381 25.2019 25.1462 24.8494 24.7328 24.5169C22.4805 22.5949 19.7366 21.4761 16.7956 21.2808C15.9299 21.213 15.136 21.7432 14.862 22.5745C14.5864 23.4106 14.9149 24.3149 15.6621 24.7742C16.2932 25.1612 16.8383 25.5604 17.2889 25.9667C18.6753 27.1991 19.2059 28.6239 19.9403 30.596C20.1729 31.2403 20.426 31.8828 20.7099 32.4802C18.4318 36.6806 17.2158 41.3686 17.1739 46.1145C16.6618 46.1358 16.1394 46.1639 15.6163 46.2208C12.6645 46.4541 9.93348 47.6034 7.71603 49.5446C7.05546 50.109 6.8691 51.0454 7.26323 51.827C7.65965 52.613 8.52712 53.021 9.3844 52.8167C10.1039 52.6442 10.7718 52.5408 11.378 52.5097C13.2699 52.3875 14.7759 53.1056 16.7121 53.9933C17.2721 54.2581 17.8309 54.4899 18.3893 54.6917C19.747 59.26 22.2081 63.4351 25.5468 66.8338C25.1986 67.2123 24.8479 67.6026 24.5171 68.0141C22.595 70.2664 21.4762 73.0103 21.281 75.9513C21.2132 76.8172 21.7433 77.6109 22.5746 77.8849C22.8947 77.9904 23.2246 78.0074 23.5359 77.9462C24.0378 77.8476 24.4909 77.5459 24.7744 77.0848C25.1613 76.4537 25.5605 75.9086 25.9668 75.458C27.2182 74.0339 28.791 73.4768 30.7876 72.7353C31.3707 72.5266 31.9296 72.2954 32.4669 72.0434C36.6565 74.3143 41.3494 75.5267 46.1144 75.5688C46.1359 76.0823 46.1637 76.6059 46.2209 77.1306C46.4545 80.0821 47.6035 82.8133 49.5447 85.0309C49.994 85.5567 50.6789 85.782 51.3339 85.6534C51.5016 85.6204 51.6676 85.5642 51.8271 85.4837C52.6132 85.0873 53.0203 84.2155 52.8168 83.3625C52.6442 82.6429 52.541 81.9751 52.5098 81.3689C52.3877 79.477 53.1057 77.971 53.9934 76.0348C54.2576 75.4761 54.4887 74.9188 54.6903 74.3618C56.2166 73.9086 57.7062 73.3323 59.1227 72.6433C59.6974 72.3637 59.9367 71.6711 59.6573 71.0965C59.3777 70.5218 58.6851 70.2829 58.1105 70.562C57.2394 70.9856 56.3379 71.3635 55.4163 71.6922C55.6823 70.2391 55.7397 68.7777 55.5892 67.2904C57.3372 66.5206 58.9576 65.5435 60.4257 64.395C61.4881 64.3775 62.5265 64.3619 63.3535 64.6504C63.9684 64.8581 64.537 65.2183 65.0933 65.6561C64.2913 66.4369 63.4376 67.1715 62.5453 67.8458C62.0352 68.2311 61.9342 68.9568 62.3196 69.4667C62.5955 69.8318 63.046 69.9874 63.4669 69.9047C63.6338 69.8719 63.7959 69.8017 63.9405 69.6925C64.9547 68.9262 65.923 68.0878 66.829 67.1953C67.2091 67.545 67.6009 67.8973 68.0144 68.2298C70.2665 70.1517 73.0107 71.2706 75.9515 71.4659C76.1258 71.4796 76.297 71.469 76.4619 71.4366C77.1158 71.3081 77.6664 70.8362 77.8852 70.1723C78.1607 69.3362 77.8323 68.4319 77.0851 67.9725C76.454 67.5857 75.9089 67.1865 75.4583 66.7802ZM67.6737 54.6427C68.3534 52.9001 68.8225 51.0657 69.0574 49.1764C69.7953 48.4132 70.5165 47.6715 71.3042 47.2908C71.8887 47.0014 72.5488 46.8539 73.2556 46.7704C73.1989 50.6017 72.3129 54.3905 70.6634 57.867C69.8244 56.6544 68.8311 55.5853 67.6737 54.6427ZM50.3334 66.5299C45.477 67.4839 40.4415 66.6541 36.1545 64.1935C30.9869 61.2263 27.365 56.1744 26.2175 50.3333C24.0341 39.2191 31.2999 28.4007 42.414 26.2173C53.5282 24.0339 64.3467 31.2996 66.5301 42.4138C68.7135 53.528 61.4476 64.3465 50.3334 66.5299ZM75.2581 40.9434C77.308 41.8809 79.0784 42.6906 81.4967 42.5482C81.7008 42.5377 81.9102 42.5206 82.1245 42.4971C80.5737 43.4847 78.8068 44.0742 76.9329 44.2199C76.3243 44.2869 75.7106 44.312 75.0561 44.3365C73.4569 44.3978 71.8031 44.4612 70.266 45.2222C69.8854 45.4158 69.5425 45.6378 69.2253 45.8726C69.1963 44.5819 69.0583 43.2767 68.8011 41.9677C68.6292 41.0926 68.4076 40.2398 68.1426 39.4097C70.5371 39.2604 72.8701 39.788 75.2581 40.9434ZM67.2905 37.1573C66.5207 35.4096 65.5438 33.7894 64.3954 32.3216C64.3778 31.2596 64.3622 30.2207 64.6507 29.3937C64.8583 28.7791 65.2181 28.2107 65.6556 27.6548C68.3418 30.4142 70.4022 33.7168 71.6923 37.3303C70.239 37.0642 68.7778 37.0064 67.2905 37.1573ZM62.7538 22.1857C65.1011 21.3412 67.2805 20.4727 68.9123 18.3529C68.514 20.148 67.6815 21.8142 66.4595 23.2423C66.0766 23.72 65.6605 24.1715 65.2152 24.6516C64.1275 25.8259 63.003 27.0401 62.454 28.6652C62.3208 29.0744 62.2327 29.4776 62.1745 29.871C60.5854 28.3538 58.7861 27.0716 56.8367 26.0648C58.3951 24.3112 60.2991 23.0646 62.7538 22.1857ZM40.9433 17.4891C41.9755 15.2997 42.829 13.1984 42.4971 10.6228C43.4847 12.1739 44.0741 13.9406 44.2199 15.8143C44.2869 16.4229 44.312 17.0366 44.3365 17.6911C44.3979 19.2904 44.4612 20.9441 45.2222 22.4812C45.4158 22.8618 45.6376 23.2047 45.8726 23.522C44.582 23.551 43.2767 23.689 41.9677 23.9461C41.0931 24.118 40.2406 24.3395 39.4109 24.6042C39.2619 22.2104 39.789 19.875 40.9433 17.4891ZM37.1576 25.4567C35.4096 26.2266 33.7894 27.2035 32.3214 28.3521C31.2593 28.3694 30.2206 28.3852 29.3936 28.0967C28.7787 27.889 28.2103 27.5291 27.6543 27.0914C30.4132 24.4058 33.7179 22.3456 37.3307 21.0557C37.0648 22.5085 37.007 23.9697 37.1576 25.4567ZM18.3528 23.8351C20.1479 24.2334 21.8141 25.066 23.2422 26.2879C23.7199 26.6708 24.1714 27.0869 24.6515 27.5322C25.8258 28.6199 27.04 29.7444 28.6651 30.2934C29.0743 30.4266 29.4775 30.5147 29.8709 30.5729C28.3539 32.162 27.0715 33.9613 26.0648 35.9104C24.2626 34.3215 22.9808 32.2943 22.1092 29.7889C21.3226 27.6766 20.6433 25.8523 18.8327 24.243C18.6811 24.106 18.521 23.97 18.3528 23.8351ZM25.0735 38.1043C24.394 39.8464 23.9248 41.6806 23.6899 43.5695C22.9537 44.334 22.2303 45.0757 21.4431 45.4565C20.8585 45.7458 20.1984 45.8933 19.4918 45.9767C19.5485 42.1439 20.4346 38.3546 22.0851 34.8771C22.9243 36.0898 23.9168 37.1612 25.0735 38.1043ZM17.4891 51.804C15.2997 50.7717 13.1984 49.9182 10.6228 50.2501C12.1739 49.2626 13.9408 48.6732 15.8144 48.5273C16.423 48.4604 17.0366 48.4352 17.6912 48.4107C19.2904 48.3494 20.944 48.286 22.4813 47.525C22.8618 47.3314 23.2047 47.1095 23.522 46.8746C23.551 48.1653 23.689 49.4705 23.9462 50.7795C24.1169 51.6487 24.3384 52.5017 24.6053 53.3361C22.2109 53.4854 19.8748 52.9584 17.4891 51.804ZM25.459 55.5891C26.2215 57.3196 27.1945 58.9439 28.352 60.4279C28.3696 61.4898 28.385 62.527 28.0967 63.3537C27.8881 63.9711 27.526 64.5418 27.0858 65.1003C24.4061 62.34 22.3498 59.0327 21.0578 55.4169C22.5106 55.6827 23.972 55.7398 25.459 55.5891ZM29.9934 70.5617C27.6462 71.4062 25.4668 72.2746 23.8349 74.3944C24.2333 72.5994 25.0658 70.9332 26.2878 69.5051C26.6707 69.0273 27.0868 68.5759 27.5321 68.0958C28.6198 66.9215 29.7442 65.7073 30.2933 64.0821C30.4252 63.6765 30.5131 63.2766 30.5713 62.8864C31.8961 64.1541 33.3806 65.2696 35.002 66.2008C35.2991 66.3713 35.5994 66.5347 35.9027 66.6912C34.3459 68.4402 32.4442 69.6841 29.9934 70.5617ZM38.1002 67.6797C39.8635 68.3645 41.701 68.8261 43.5697 69.0568C44.3335 69.794 45.0756 70.5165 45.4565 71.304C45.7456 71.8881 45.8931 72.5479 45.9767 73.254C42.1292 73.1972 38.3355 72.3138 34.8656 70.6701C36.0812 69.8309 37.1551 68.8379 38.1002 67.6797ZM51.8948 75.0597C50.8318 77.3164 49.905 79.4719 50.2502 82.1246C49.2627 80.5735 48.6731 78.8067 48.5274 76.933C48.4605 76.3244 48.4352 75.7108 48.4108 75.0562C48.3494 73.457 48.2861 71.8032 47.5251 70.2661C47.331 69.8849 47.1087 69.5412 46.8733 69.2235C48.1774 69.1948 49.4843 69.0557 50.7797 68.8012C51.6544 68.6294 52.5067 68.4078 53.3364 68.1431C53.4724 70.4812 53.0073 72.7059 51.8948 75.0597ZM69.5051 66.4595C69.0274 66.0766 68.5759 65.6605 68.0958 65.2151C66.9215 64.1275 65.7073 63.003 64.0822 62.4539C63.6729 62.3208 63.2698 62.2327 62.8764 62.1744C64.3936 60.5854 65.6758 58.786 66.6826 56.8368C68.4379 58.3959 69.68 60.2913 70.5619 62.7538C71.4064 65.101 72.2748 67.2804 74.3946 68.9123C72.5993 68.5138 70.9332 67.6814 69.5051 66.4595Z" fill="black"/>
<path d="M43.1902 30.1705C35.3245 31.7157 29.7189 38.6501 29.8613 46.659C29.8727 47.298 30.3998 47.8068 31.0389 47.7954C31.6772 47.784 32.1866 47.2569 32.1753 46.6178C32.0529 39.7323 36.8729 33.7704 43.6362 32.4417C51.3184 30.9325 58.7961 35.9546 60.3053 43.6368C61.8145 51.319 56.7924 58.7967 49.1102 60.3059C45.7528 60.9655 42.2727 60.3924 39.311 58.6926C36.5022 57.0802 34.3111 54.5323 33.1411 51.5183C32.9099 50.9225 32.2392 50.6271 31.6436 50.8583C31.0478 51.0897 30.7522 51.7601 30.9836 52.3559C32.3444 55.8615 34.8926 58.8249 38.1588 60.6999C41.6042 62.6774 45.652 63.3441 49.5565 62.5771C58.4909 60.8219 64.3317 52.1252 62.5765 43.1908C60.8213 34.2564 52.1246 28.4153 43.1902 30.1705Z" fill="black"/>
<path d="M19.9307 17.7719C22.13 18.2147 22.7799 18.6512 24.0217 20.5194C24.2808 20.9093 24.7493 21.1045 25.2085 21.0143C25.6677 20.9241 26.0274 20.5662 26.1198 20.1072C26.5627 17.9081 26.9992 17.258 28.8674 16.0162C29.2572 15.7571 29.4525 15.2887 29.3623 14.8295C29.272 14.3701 28.9141 14.0105 28.4552 13.9181C26.2561 13.4754 25.606 13.0387 24.3642 11.1705C24.105 10.7807 23.6366 10.5854 23.1774 10.6756C22.7181 10.7659 22.3583 11.124 22.266 11.5827C21.8233 13.782 21.3867 14.432 19.5185 15.6737C19.1288 15.9329 18.9334 16.4013 19.0236 16.8605C19.1138 17.3197 19.4718 17.6795 19.9307 17.7719ZM23.8849 14.2771C24.4454 14.8286 25.0383 15.227 25.7609 15.537C25.2093 16.0974 24.8111 16.6903 24.501 17.4129C23.9405 16.8613 23.3476 16.4631 22.625 16.153C23.1768 15.5927 23.5749 14.9996 23.8849 14.2771Z" fill="black"/>
<path d="M4.86957 36.3108C7.52384 36.8452 8.36382 37.4094 9.86269 39.6642C10.1218 40.054 10.5903 40.2493 11.0495 40.1591C11.5087 40.0689 11.8684 39.7109 11.9608 39.252C12.4953 36.5977 13.0594 35.7578 15.3143 34.2589C15.7041 33.9997 15.8994 33.5313 15.8092 33.0721C15.7189 32.6129 15.361 32.2532 14.9021 32.1607C12.2478 31.6263 11.4078 31.0621 9.90895 28.8073C9.6498 28.4175 9.18137 28.2222 8.72217 28.3124C8.26296 28.4026 7.90322 28.7606 7.81081 29.2195C7.27634 31.8738 6.7122 32.7138 4.45738 34.2126C4.0675 34.4716 3.87224 34.9401 3.96248 35.3994C4.05272 35.8588 4.41065 36.2184 4.86957 36.3108ZM9.44344 31.9839C10.2339 32.8217 11.0631 33.3786 12.1376 33.7934C11.2999 34.5838 10.7429 35.4131 10.3282 36.4876C9.53778 35.6498 8.70849 35.0929 7.634 34.6781C8.4717 33.8876 9.02869 33.0584 9.44344 31.9839Z" fill="black"/>
<path d="M87.8773 56.4364C84.5757 55.7716 83.5308 55.0698 81.6663 52.2651C81.4072 51.8752 80.9388 51.68 80.4795 51.7702C80.0203 51.8604 79.6606 52.2183 79.5682 52.6773C78.9033 55.9789 78.2016 57.0238 75.3968 58.8882C75.007 59.1474 74.8117 59.6158 74.9019 60.075C74.9922 60.5342 75.3501 60.894 75.809 60.9864C79.1107 61.6512 80.1555 62.353 82.02 65.1577C82.2791 65.5476 82.7476 65.7428 83.2068 65.6526C83.666 65.5624 84.0257 65.2044 84.1181 64.7455C84.783 61.4439 85.4847 60.399 88.2895 58.5346C88.6793 58.2754 88.8746 57.807 88.7844 57.3478C88.6942 56.8886 88.3362 56.5288 87.8773 56.4364ZM82.4694 61.8993C81.365 60.6365 80.2421 59.8824 78.6552 59.3377C79.9181 58.2332 80.6723 57.1103 81.2169 55.5235C82.3213 56.7863 83.4443 57.5405 85.0311 58.0851C83.7683 59.1897 83.0141 60.3125 82.4694 61.8993Z" fill="black"/>
</g>
<defs>
<clipPath id="clip0_39_80">
<rect width="79" height="79" fill="white" transform="translate(0 15.2285) rotate(-11.1143)"/>
</clipPath>
</defs>
</svg>
