<svg width="235" height="235" viewBox="0 0 235 235" fill="none" xmlns="http://www.w3.org/2000/svg">
<g clip-path="url(#clip0_39_3)">
<path d="M156.038 10.8504L144.229 15.4509C142.843 15.9909 142.157 17.5524 142.697 18.9387C143.237 20.325 144.798 21.0109 146.184 20.4709L157.994 15.8704C163.394 13.7669 169.498 16.4485 171.601 21.8481L210.764 122.379C212.868 127.778 210.186 133.883 204.786 135.986L135.528 162.967C130.128 165.07 124.024 162.388 121.921 156.989L82.7579 56.4577C80.6544 51.0581 83.3361 44.9538 88.7357 42.8504L137.818 23.7297C139.205 23.1896 139.89 21.6281 139.35 20.2419C138.81 18.8556 137.249 18.1696 135.863 18.7097L86.7801 37.8304C78.6122 41.0123 74.5561 50.2455 77.7379 58.4133L116.901 158.944C120.083 167.112 129.316 171.168 137.484 167.986L206.742 141.006C214.91 137.824 218.966 128.591 215.784 120.423L176.621 19.8922C173.439 11.7248 164.206 7.66864 156.038 10.8504Z" fill="white"/>
<path d="M77.4492 74.3559L27.9161 93.6521C19.7482 96.834 15.692 106.067 18.8739 114.235L44.6341 180.361C45.1742 181.747 46.7356 182.433 48.1219 181.893C49.5082 181.353 50.1941 179.792 49.6541 178.406L23.8939 112.279C21.7903 106.88 24.472 100.776 29.872 98.6719L79.4051 79.3757C80.7914 78.8357 81.4773 77.2742 80.9373 75.8879C80.3973 74.5017 78.8355 73.8158 77.4492 74.3559Z" fill="white"/>
<path d="M150.273 166.602C148.886 167.142 148.2 168.703 148.74 170.089L151.9 178.2C154.004 183.6 151.322 189.704 145.922 191.808L76.6642 218.788C71.2642 220.892 65.1598 218.21 63.0565 212.81L52.9131 186.772C52.3731 185.386 50.8116 184.7 49.4253 185.24C48.039 185.78 47.3534 187.342 47.8934 188.728L58.0368 214.766C61.2187 222.934 70.4519 226.99 78.6198 223.808L147.878 196.828C156.046 193.646 160.102 184.412 156.92 176.245L153.76 168.134C153.22 166.748 151.659 166.062 150.273 166.602Z" fill="white"/>
<path d="M169.362 80.6135L172.331 61.2494C172.477 60.2982 172.104 59.3411 171.353 58.7394C170.602 58.1377 169.587 57.9818 168.691 58.3311L150.436 65.4425L135.15 53.1893C134.399 52.5874 133.385 52.4317 132.488 52.7811C131.591 53.1305 130.949 53.9313 130.803 54.8828L127.835 74.247L109.581 81.3581C108.684 81.7075 108.042 82.5087 107.896 83.4599C107.75 84.411 108.123 85.3682 108.874 85.9699L124.159 98.223L121.191 117.587C121.044 118.538 121.417 119.495 122.168 120.097C122.919 120.699 123.934 120.855 124.831 120.505L143.085 113.394L158.371 125.647C159.122 126.249 160.136 126.405 161.033 126.056C161.929 125.706 162.572 124.905 162.718 123.954L165.686 104.59L183.941 97.4783C184.838 97.129 185.479 96.3278 185.625 95.3766C185.772 94.4255 185.399 93.4683 184.648 92.8666L169.362 80.6135ZM166.299 65.0441L164.509 76.7225L155.29 69.3328L166.299 65.0441ZM135.422 60.3106L144.64 67.7002L133.631 71.9891L135.422 60.3106ZM115.883 84.6843L126.892 80.3955L125.102 92.0738L115.883 84.6843ZM127.222 113.792L129.013 102.114L138.231 109.503L127.222 113.792ZM158.1 118.526L148.881 111.136L159.891 106.847L158.1 118.526ZM160.833 100.699L144.027 107.245L129.955 95.965L132.688 78.138L149.494 71.5913L163.566 82.8716L160.833 100.699ZM166.629 98.4405L168.42 86.7622L177.638 94.1518L166.629 98.4405Z" fill="white"/>
<path d="M110.141 49.3378L106.627 50.7066L105.258 47.1926C104.718 45.8066 103.157 45.1203 101.77 45.6604C100.384 46.2004 99.6982 47.7619 100.238 49.1482L101.607 52.6618L98.0934 54.0306C96.7075 54.5705 96.0212 56.1321 96.5612 57.5184C97.1012 58.9046 98.6627 59.5906 100.049 59.0506L103.563 57.6818L104.931 61.1954C105.471 62.5817 107.033 63.2677 108.419 62.7276C109.805 62.1876 110.491 60.6261 109.951 59.2398L108.583 55.7262L112.096 54.3574C113.483 53.8174 114.168 52.2559 113.628 50.8696C113.088 49.4834 111.527 48.7977 110.141 49.3378Z" fill="white"/>
<path d="M193.472 119.786L189.959 121.154L188.59 117.641C188.05 116.254 186.488 115.568 185.102 116.109C183.716 116.649 183.03 118.21 183.57 119.596L184.939 123.11L181.425 124.479C180.039 125.019 179.353 126.58 179.893 127.967C180.433 129.352 181.994 130.039 183.381 129.499L186.894 128.13L188.263 131.644C188.803 133.03 190.365 133.716 191.751 133.176C193.137 132.636 193.823 131.074 193.283 129.688L191.914 126.174L195.428 124.806C196.814 124.266 197.5 122.704 196.96 121.318C196.42 119.932 194.858 119.246 193.472 119.786Z" fill="white"/>
<path d="M51.2769 105.159L47.7632 106.528L46.3945 103.014C45.8544 101.628 44.2929 100.942 42.9067 101.482C41.5204 102.022 40.8344 103.583 41.3745 104.97L42.7433 108.483L39.2296 109.852C37.8433 110.392 37.1574 111.954 37.6974 113.34C38.2375 114.726 39.7989 115.412 41.1852 114.872L44.6989 113.503L46.0676 117.017C46.6077 118.403 48.1692 119.089 49.5554 118.549C50.9417 118.009 51.6276 116.448 51.0876 115.061L49.7188 111.548L53.2325 110.179C54.6187 109.639 55.3047 108.077 54.7647 106.691C54.2246 105.305 52.6631 104.619 51.2769 105.159Z" fill="white"/>
<path d="M134.608 175.608L131.095 176.976L129.726 173.463C129.186 172.076 127.624 171.391 126.238 171.931C124.852 172.471 124.166 174.032 124.706 175.418L126.075 178.932L122.561 180.301C121.175 180.841 120.489 182.402 121.029 183.789C121.569 185.175 123.13 185.861 124.517 185.321L128.03 183.952L129.399 187.466C129.939 188.852 131.501 189.538 132.887 188.998C134.273 188.458 134.959 186.896 134.419 185.51L133.05 181.996L136.564 180.628C137.95 180.088 138.636 178.526 138.096 177.14C137.556 175.754 135.995 175.068 134.608 175.608Z" fill="white"/>
<path d="M110.932 161.577C103.231 172.46 88.7678 176.46 76.5412 171.089C62.2876 164.827 55.7857 148.137 62.0472 133.883C63.9265 129.605 66.7654 125.948 70.2972 123.139C70.2376 123.269 70.1791 123.399 70.1217 123.529C64.5761 136.153 70.3345 150.935 82.9584 156.481C92.1801 160.532 102.871 158.681 110.194 151.765C111.276 150.744 111.325 149.039 110.304 147.957C109.282 146.876 107.577 146.828 106.496 147.849C100.749 153.275 92.3609 154.727 85.1248 151.549C75.2206 147.198 70.7027 135.601 75.0535 125.696C76.5122 122.376 78.8516 119.534 81.8191 117.476C82.8902 116.733 83.2759 115.33 82.7353 114.144C82.1944 112.959 80.8827 112.33 79.6195 112.651C69.5093 115.227 61.3058 122.176 57.1147 131.716C53.5027 139.938 53.3087 149.075 56.5686 157.443C59.8284 165.811 66.152 172.409 74.374 176.02C82.763 179.706 92.0357 179.685 100.144 176.527C106.108 174.204 111.442 170.181 115.329 164.687C116.189 163.473 115.9 161.792 114.686 160.933C113.472 160.074 111.791 160.362 110.932 161.577Z" fill="white"/>
</g>
<defs>
<clipPath id="clip0_39_3">
<rect width="181.233" height="181.233" fill="white" transform="translate(0 65.786) rotate(-21.284)"/>
</clipPath>
</defs>
</svg>
