<svg width="113" height="113" viewBox="0 0 113 113" fill="none" xmlns="http://www.w3.org/2000/svg">
<g clip-path="url(#clip0_39_104)">
<path d="M62.5869 96.9037C62.5401 95.1241 62.7454 93.1755 63.1989 91.0694C65.6608 90.5879 68.0834 89.959 70.4534 89.1797C80.4854 85.8812 89.0535 80.0683 94.5793 72.8123C96.7005 70.0268 97.5979 66.5834 97.1056 63.1167C96.6135 59.6503 94.7944 56.5897 91.978 54.5063C89.9337 52.9909 87.579 52.1651 85.1985 51.9811C86.5605 50.1659 87.8614 48.4571 89.0535 46.8917C91.1748 44.1062 92.0721 40.6629 91.5799 37.1961C91.0878 33.7297 89.2684 30.6768 86.4523 28.5856C83.3306 26.2716 79.4769 25.5762 75.9153 26.344C75.7174 22.6581 73.9706 19.0788 70.8123 16.6736C67.9823 14.5185 64.5446 13.7058 61.2661 14.1276C61.1424 11.1496 59.7456 8.24583 57.1947 6.30324C52.6481 2.84077 46.1324 3.72278 42.6699 8.26942L38.8643 13.2667L43.8615 17.0723L47.6672 12.0751C49.0311 10.284 51.5981 9.93657 53.3891 11.3005C55.1801 12.6645 55.5276 15.2314 54.1636 17.0224L22.7671 58.2499L27.7643 62.0555L57.5435 22.9519L57.5525 22.9587C59.8083 19.9966 64.0494 19.4188 67.0066 21.6709C69.9639 23.923 70.5344 28.165 68.2778 31.1283L38.5235 70.2367L43.5225 74.0399L73.2143 35.0138L73.2233 35.0206C75.4838 32.0522 79.7404 31.4292 82.7118 33.6316C84.1689 34.7088 85.1068 36.2889 85.3609 38.0789C85.6149 39.8694 85.1517 41.6476 84.0563 43.0861L73.5635 56.8643C68.7762 63.6962 64.1409 71.4583 60.8761 78.6437C59.7869 81.0407 58.896 83.3171 58.1984 85.4871C51.4625 86.3441 44.0714 86.0515 36.2858 84.1484L34.7943 90.2501C42.1106 92.0385 49.4887 92.615 56.6386 91.9919C56.3748 93.756 56.2647 95.4454 56.3075 97.069C56.4791 103.583 59.1352 108.843 64.202 112.701L68.0077 107.704C64.4806 105.018 62.7075 101.485 62.5869 96.9037ZM88.2374 59.5523C89.6979 60.6259 90.6323 62.2095 90.8865 63.9996C91.1407 65.7899 90.6775 67.5682 89.582 69.0066C84.7101 75.404 76.1823 81.2308 65.3804 84.0902C65.7491 83.1622 66.1539 82.2127 66.595 81.2421C69.6587 74.4993 74.2094 67.3265 78.8087 60.7599C81.0627 57.9649 85.3359 57.4015 88.2374 59.5523Z" fill="black"/>
</g>
<defs>
<clipPath id="clip0_39_104">
<rect width="80.4016" height="80.4016" fill="white" transform="translate(48.9492 0.0239258) rotate(37.2909)"/>
</clipPath>
</defs>
</svg>
