<svg width="32" height="24" viewBox="0 0 32 24" fill="none" xmlns="http://www.w3.org/2000/svg">
<path d="M30.7527 2.67296C29.5976 1.29985 27.465 0.739746 23.3921 0.739746H8.60759C4.4415 0.739746 2.27272 1.33598 1.12196 2.79786C0 4.2232 0 6.32333 0 9.22997V14.77C0 20.4011 1.3312 23.2601 8.60759 23.2601H23.3922C26.9242 23.2601 28.8813 22.7659 30.1475 21.5541C31.446 20.3115 32 18.2826 32 14.77V9.22997C32 6.16468 31.9132 4.05216 30.7527 2.67296ZM20.5441 12.7648L13.8305 16.2736C13.6804 16.352 13.5163 16.3909 13.3524 16.3909C13.1668 16.3909 12.9816 16.341 12.8175 16.2417C12.5087 16.0545 12.3201 15.7198 12.3201 15.3587V8.3637C12.3201 8.00323 12.5082 7.66878 12.8164 7.48153C13.1247 7.29428 13.5082 7.28148 13.8281 7.44767L20.5417 10.9338C20.8833 11.1112 21.0978 11.4638 21.0983 11.8485C21.0987 12.2335 20.8852 12.5867 20.5441 12.7648Z" fill="black"/>
</svg>
